<svg width="29" height="29" viewBox="0 0 29 29" fill="none" xmlns="http://www.w3.org/2000/svg">
<path fill-rule="evenodd" clip-rule="evenodd" d="M3.05502 5.3813C2.54639 6.37955 2.54639 7.68634 2.54639 10.2999V18.6999C2.54639 21.3135 2.54639 22.6203 3.05502 23.6185C3.50243 24.4966 4.21634 25.2105 5.09443 25.6579C6.09269 26.1666 7.39948 26.1666 10.0131 26.1666H18.4131C21.0266 26.1666 22.3334 26.1666 23.3317 25.6579C24.2098 25.2105 24.9237 24.4966 25.3711 23.6185C25.8797 22.6203 25.8797 21.3135 25.8797 18.6999V10.2999C25.8797 7.68634 25.8797 6.37955 25.3711 5.3813C24.9237 4.50321 24.2098 3.7893 23.3317 3.34189C22.3334 2.83325 21.0266 2.83325 18.4131 2.83325H10.0131C7.39948 2.83325 6.09269 2.83325 5.09443 3.34189C4.21634 3.7893 3.50243 4.50321 3.05502 5.3813ZM21.4547 11.2415C21.9103 10.7859 21.9103 10.0472 21.4547 9.59163C20.9991 9.13602 20.2604 9.13602 19.8048 9.59163L11.8797 17.5167L8.62135 14.2583C8.16573 13.8027 7.42704 13.8027 6.97143 14.2583C6.51582 14.7139 6.51582 15.4526 6.97143 15.9082L11.0548 19.9915C11.5104 20.4472 12.2491 20.4472 12.7047 19.9915L21.4547 11.2415Z" fill="#3460DC"/>
</svg>
