<svg width="19" height="19" viewBox="0 0 19 19" fill="none" xmlns="http://www.w3.org/2000/svg">
<path d="M18.3668 13.0609C18.5348 13.0609 18.6958 13.1234 18.8146 13.2347C18.9333 13.3461 19 13.4971 19 13.6545V16.0292C19 16.8165 18.667 17.5728 18.073 18.1309C17.4791 18.6877 16.6801 19 15.8316 19H3.16836C2.32878 19 1.52213 18.6877 0.926954 18.1309C0.632697 17.8549 0.399365 17.5272 0.240308 17.1666C0.0812507 16.806 -0.000408816 16.4195 1.53893e-06 16.0292V13.6545C1.53893e-06 13.4971 0.0667097 13.3461 0.185451 13.2347C0.304192 13.1234 0.46524 13.0609 0.633166 13.0609C0.801092 13.0609 0.962139 13.1234 1.08088 13.2347C1.19962 13.3461 1.26633 13.4971 1.26633 13.6545V16.0292C1.26667 16.5012 1.46676 16.9537 1.82268 17.2874C2.17859 17.6212 2.66122 17.8088 3.16456 17.8091H15.8278C16.3312 17.8088 16.8138 17.6212 17.1697 17.2874C17.5256 16.9537 17.7257 16.5012 17.7261 16.0292V13.6545C17.7261 13.4971 17.7928 13.3461 17.9115 13.2347C18.0303 13.1234 18.1913 13.0609 18.3592 13.0609H18.3668ZM9.50253 0C9.67046 0 9.83151 0.0625478 9.95025 0.173884C10.069 0.285219 10.1357 0.436223 10.1357 0.593676V11.0305L12.8583 8.47769C12.9172 8.42249 12.9871 8.37871 13.064 8.34883C13.1409 8.31896 13.2233 8.30359 13.3066 8.30359C13.3898 8.30359 13.4723 8.31896 13.5492 8.34883C13.6261 8.37871 13.696 8.42249 13.7549 8.47769C13.8137 8.53289 13.8604 8.59842 13.8923 8.67054C13.9242 8.74265 13.9405 8.81995 13.9405 8.89801C13.9405 8.97607 13.9242 9.05337 13.8923 9.12549C13.8604 9.19761 13.8137 9.26314 13.7549 9.31833L9.95588 12.8804C9.89707 12.9357 9.82721 12.9796 9.75029 13.0095C9.67336 13.0395 9.59089 13.0549 9.5076 13.0549C9.42431 13.0549 9.34184 13.0395 9.26491 13.0095C9.18799 12.9796 9.11812 12.9357 9.05932 12.8804L5.26033 9.31833C5.20124 9.26213 5.15523 9.19802 5.1223 9.12598C5.07291 9.01793 5.07418 8.97638 5.07418 8.89801C5.07395 8.78033 5.11102 8.66525 5.1807 8.56736C5.25037 8.46948 5.34949 8.39322 5.46548 8.34827C5.54253 8.31822 5.62516 8.30275 5.70861 8.30275C5.79206 8.30275 5.87469 8.31822 5.95175 8.34827C6.02854 8.37835 6.09825 8.42233 6.15689 8.47769L8.8795 11.0305V0.593676C8.8795 0.436223 8.94621 0.285219 9.06495 0.173884C9.18369 0.0625478 9.34474 0 9.51266 0L9.50253 0Z" fill="white"/>
</svg>
