<svg width="24" height="25" viewBox="0 0 24 25" fill="none" xmlns="http://www.w3.org/2000/svg">
<path d="M11.5001 18.5C15.5001 18.5 18.9601 16.28 20.7401 13C18.9601 9.72 15.5001 7.5 11.5001 7.5C7.50014 7.5 4.04014 9.72 2.26014 13C4.04014 16.28 7.50014 18.5 11.5001 18.5ZM11.5001 6.5C16.0601 6.5 20.0001 9.15 21.8601 13C20.0001 16.85 16.0601 19.5 11.5001 19.5C6.94014 19.5 3.00014 16.85 1.14014 13C3.00014 9.15 6.94014 6.5 11.5001 6.5ZM11.5001 8.5C14.0001 8.5 16.0001 10.5 16.0001 13C16.0001 15.5 14.0001 17.5 11.5001 17.5C9.00014 17.5 7.00014 15.5 7.00014 13C7.00014 10.5 9.00014 8.5 11.5001 8.5ZM11.5001 9.5C10.5719 9.5 9.68164 9.86875 9.02526 10.5251C8.36889 11.1815 8.00014 12.0717 8.00014 13C8.00014 13.9283 8.36889 14.8185 9.02526 15.4749C9.68164 16.1313 10.5719 16.5 11.5001 16.5C12.4284 16.5 13.3186 16.1313 13.975 15.4749C14.6314 14.8185 15.0001 13.9283 15.0001 13C15.0001 12.0717 14.6314 11.1815 13.975 10.5251C13.3186 9.86875 12.4284 9.5 11.5001 9.5Z" fill="white"/>
</svg>
