<svg width="40" height="41" viewBox="0 0 40 41" fill="none" xmlns="http://www.w3.org/2000/svg">
<path d="M8.3335 20.5001V7.16675M31.6668 33.8334V28.8334M8.3335 33.8334V27.1667M31.6668 22.1667V7.16675M20.0002 12.1667V7.16675M20.0002 33.8334V18.8334" stroke="#F9F9F9" stroke-width="2" stroke-linecap="round"/>
<path d="M8.33333 27.1667C10.1743 27.1667 11.6667 25.6743 11.6667 23.8333C11.6667 21.9924 10.1743 20.5 8.33333 20.5C6.49238 20.5 5 21.9924 5 23.8333C5 25.6743 6.49238 27.1667 8.33333 27.1667Z" stroke="#F9F9F9" stroke-width="2" stroke-linecap="round"/>
<path d="M19.9998 18.8334C21.8408 18.8334 23.3332 17.341 23.3332 15.5001C23.3332 13.6591 21.8408 12.1667 19.9998 12.1667C18.1589 12.1667 16.6665 13.6591 16.6665 15.5001C16.6665 17.341 18.1589 18.8334 19.9998 18.8334Z" stroke="#F9F9F9" stroke-width="2" stroke-linecap="round"/>
<path d="M31.6668 28.8334C33.5078 28.8334 35.0002 27.341 35.0002 25.5001C35.0002 23.6591 33.5078 22.1667 31.6668 22.1667C29.8259 22.1667 28.3335 23.6591 28.3335 25.5001C28.3335 27.341 29.8259 28.8334 31.6668 28.8334Z" stroke="#F9F9F9" stroke-width="2" stroke-linecap="round"/>
</svg>
