<svg width="29" height="29" viewBox="0 0 29 29" fill="none" xmlns="http://www.w3.org/2000/svg">
<path d="M19.8973 2.83325C21.9775 2.83325 22.7319 3.04985 23.4924 3.45656C24.2529 3.86328 24.8497 4.46012 25.2564 5.22061C25.6631 5.98111 25.8797 6.73544 25.8797 8.81565V20.1842C25.8797 22.2644 25.6631 23.0187 25.2564 23.7792C24.8497 24.5397 24.2529 25.1366 23.4924 25.5433C22.7319 25.95 21.9775 26.1666 19.8973 26.1666H8.52879C6.44858 26.1666 5.69424 25.95 4.93375 25.5433C4.17325 25.1366 3.57641 24.5397 3.1697 23.7792C2.76298 23.0187 2.54639 22.2644 2.54639 20.1842V8.81565C2.54639 6.73544 2.76298 5.98111 3.1697 5.22061C3.57641 4.46012 4.17325 3.86328 4.93375 3.45656C5.69424 3.04985 6.44858 2.83325 8.52879 2.83325H19.8973ZM20.5552 5.16659H7.87092C6.83081 5.16659 6.45365 5.27488 6.0734 5.47824C5.69315 5.6816 5.39473 5.98002 5.19137 6.36027C4.98802 6.74051 4.87972 7.11768 4.87972 8.15778V20.8421C4.87972 21.8822 4.98802 22.2593 5.19137 22.6396C5.39473 23.0198 5.69315 23.3182 6.0734 23.5216C6.45365 23.725 6.83081 23.8333 7.87092 23.8333H20.5552C21.5953 23.8333 21.9725 23.725 22.3527 23.5216C22.733 23.3182 23.0314 23.0198 23.2347 22.6396C23.4381 22.2593 23.5464 21.8822 23.5464 20.8421V8.15778C23.5464 7.11768 23.4381 6.74051 23.2347 6.36027C23.0314 5.98002 22.733 5.6816 22.3527 5.47824C21.9725 5.27488 21.5953 5.16659 20.5552 5.16659Z" fill="#F9F9F9"/>
</svg>
