<svg width="40" height="40" viewBox="0 0 40 40" xmlns="http://www.w3.org/2000/svg">
    <path
        d="M6.15333 15.4499C5.91778 15.4499 5.72 15.3694 5.56 15.2082C5.4 15.0471 5.32 14.8488 5.32 14.6132C5.32 14.3777 5.4 14.1799 5.56 14.0199C5.72 13.8599 5.91778 13.7805 6.15333 13.7816H11.3467C11.8789 13.7816 12.3539 13.9371 12.7717 14.2482C13.1894 14.5594 13.4839 14.9594 13.655 15.4482L6.15333 15.4499ZM9.55167 30.3832C11.0472 30.3832 12.3183 29.8605 13.365 28.8149C14.4117 27.7694 14.935 26.4977 14.935 24.9999C14.935 23.5021 14.4117 22.2305 13.365 21.1849C12.3183 20.1394 11.0472 19.616 9.55167 19.6149C8.05611 19.6138 6.78445 20.1371 5.73667 21.1849C4.68889 22.2327 4.16556 23.5044 4.16667 24.9999C4.16778 26.4955 4.69111 27.7671 5.73667 28.8149C6.78222 29.8627 8.05389 30.386 9.55167 30.3849M32.5 30.3849C33.4078 30.3849 34.1906 30.056 34.8483 29.3982C35.505 28.7416 35.8333 27.9594 35.8333 27.0516C35.8333 26.1438 35.505 25.361 34.8483 24.7032C34.1917 24.0455 33.4089 23.7171 32.5 23.7182C31.5911 23.7194 30.8083 24.0477 30.1517 24.7032C29.495 25.3588 29.1667 26.1416 29.1667 27.0516C29.1667 27.9616 29.495 28.7438 30.1517 29.3982C30.8083 30.0527 31.5911 30.3816 32.5 30.3849ZM9.54333 26.8582C9.02445 26.8582 8.58611 26.6771 8.22833 26.3149C7.87056 25.9527 7.69167 25.5121 7.69167 24.9932C7.69167 24.4744 7.87333 24.0355 8.23667 23.6766C8.6 23.3199 9.04056 23.1416 9.55833 23.1416C10.0772 23.1416 10.5156 23.3227 10.8733 23.6849C11.2311 24.0482 11.41 24.4888 11.41 25.0066C11.41 25.5255 11.2283 25.9644 10.865 26.3232C10.5028 26.681 10.0622 26.8582 9.54333 26.8582ZM33.27 22.0932C33.6078 22.1677 33.895 22.2482 34.1317 22.3349C34.3683 22.4216 34.6367 22.5688 34.9367 22.7766V13.9749C34.9367 13.2338 34.6728 12.5999 34.145 12.0732C33.6172 11.5466 32.9839 11.2827 32.245 11.2816H23.6667L21.9167 9.44824L24.25 7.11491L23.0833 5.94824L17.1667 11.8649L18.4167 13.0316L20.75 10.6982L22.5 12.4482V14.9999C22.5 16.2688 22.0483 17.3555 21.145 18.2599C20.2417 19.1644 19.155 19.616 17.885 19.6149H14.0933C14.4111 19.8949 14.6683 20.1566 14.865 20.3999C15.0617 20.6444 15.2794 20.9388 15.5183 21.2832H17.885C19.6328 21.2832 21.1167 20.6727 22.3367 19.4516C23.5567 18.2305 24.1667 16.7466 24.1667 14.9999V12.9499H32.2433C32.5433 12.9499 32.7894 13.0455 32.9817 13.2366C33.1739 13.4288 33.27 13.6744 33.27 13.9732V22.0932ZM27.6367 25.8332C27.74 25.4888 27.845 25.1971 27.9517 24.9582C28.0583 24.7194 28.2239 24.4555 28.4483 24.1666H16.5333C16.58 24.4866 16.6033 24.7644 16.6033 24.9999C16.6033 25.2355 16.58 25.5132 16.5333 25.8332H27.6367ZM32.5 32.0499C31.1022 32.0499 29.9194 31.5666 28.9517 30.5999C27.9839 29.631 27.5 28.4477 27.5 27.0499C27.5 25.6521 27.9839 24.4699 28.9517 23.5032C29.9194 22.5366 31.1022 22.0527 32.5 22.0516C33.8978 22.0505 35.0806 22.5344 36.0483 23.5032C37.0161 24.4721 37.5 25.6549 37.5 27.0516C37.5 28.4482 37.0161 29.6305 36.0483 30.5982C35.0806 31.5671 33.8978 32.0516 32.5 32.0516M9.55 32.0516C7.6 32.0516 5.93778 31.3638 4.56333 29.9882C3.18889 28.6127 2.50111 26.9499 2.5 24.9999C2.49889 23.0499 3.18667 21.3871 4.56333 20.0116C5.94 18.636 7.60278 17.9482 9.55167 17.9482C11.5006 17.9482 13.1633 18.636 14.54 20.0116C15.9167 21.3871 16.6044 23.0499 16.6033 24.9999C16.6022 26.9499 15.9144 28.6127 14.54 29.9882C13.1656 31.3638 11.5011 32.0516 9.55 32.0516Z"
    />
</svg>