<svg width="33" height="33" viewBox="0 0 33 33" xmlns="http://www.w3.org/2000/svg">
    <path
        d="M8.19775 16.8438H5.61962C4.79462 16.8438 4.125 17.5134 4.125 18.3384V28.0679C4.125 28.8929 4.79462 29.5625 5.61962 29.5625H8.195C9.02 29.5625 9.68962 28.8929 9.68962 28.0679V18.3384C9.68962 17.5134 9.02 16.8438 8.195 16.8438M17.7361 10.4844H15.1608C14.3357 10.4844 13.6661 11.154 13.6661 11.979V28.0679C13.6661 28.8929 14.3344 29.5625 15.1594 29.5625H17.7361C18.5611 29.5625 19.2308 28.8929 19.2308 28.0679V11.979C19.2308 11.154 18.5611 10.4844 17.7361 10.4844ZM27.2745 4.125H24.6991C23.8741 4.125 23.2045 4.79462 23.2045 5.61962V28.0679C23.2045 28.8929 23.8741 29.5625 24.6991 29.5625H27.2745C28.0995 29.5625 28.7691 28.8929 28.7691 28.0679V5.61962C28.7691 4.79462 28.0995 4.125 27.2745 4.125Z"
    />
</svg>