<svg width="39" height="39" viewBox="0 0 39 39"
    xmlns="http://www.w3.org/2000/svg">
    <path
        d="M19.5 32.5C15.7018 32.5 12.5856 32.0163 10.1514 31.0489C7.71713 30.0815 6.5 28.8356 6.5 27.3114V11.375C6.5 10.0252 7.7675 8.87521 10.3025 7.92512C12.8375 6.97504 15.9033 6.5 19.5 6.5C23.0967 6.5 26.1625 6.97504 28.6975 7.92512C31.2325 8.87521 32.5 10.0252 32.5 11.375V27.313C32.5 28.8351 31.2829 30.0804 28.8486 31.0489C26.4144 32.0174 23.2982 32.5011 19.5 32.5ZM19.5 14.4462C21.827 14.4462 24.1724 14.1218 26.5362 13.4729C28.9023 12.824 30.3171 12.1171 30.7807 11.3522C30.3366 10.5462 28.9445 9.80687 26.6045 9.13412C24.2645 8.46137 21.8963 8.125 19.5 8.125C17.1394 8.125 14.7745 8.44946 12.4052 9.09837C10.036 9.74729 8.61954 10.4569 8.15588 11.2271C8.59788 12.0396 9.99321 12.7795 12.3419 13.4469C14.6905 14.1142 17.0766 14.4462 19.5 14.4462ZM19.5 22.6249C20.6158 22.6249 21.7127 22.5707 22.7906 22.4624C23.8685 22.354 24.8982 22.1932 25.8797 21.9797C26.8612 21.7663 27.774 21.5004 28.6179 21.1819C29.4618 20.8634 30.2142 20.5032 30.875 20.1012V13.4469C30.2131 13.8477 29.4602 14.2074 28.6163 14.5259C27.7745 14.8444 26.8623 15.1098 25.8797 15.3221C24.8972 15.5366 23.8675 15.698 22.7906 15.8064C21.7138 15.9147 20.6169 15.9689 19.5 15.9689C18.3408 15.9689 17.2147 15.9093 16.1216 15.7901C15.0285 15.671 13.9961 15.5052 13.0244 15.2929C12.0526 15.0805 11.1518 14.8195 10.322 14.5096C9.49217 14.1998 8.75983 13.8455 8.125 13.4469V20.1029C8.76092 20.5037 9.49325 20.858 10.322 21.1656C11.1508 21.4733 12.0515 21.7344 13.0244 21.9489C13.995 22.1623 15.0275 22.3286 16.1216 22.4477C17.2158 22.5669 18.3419 22.626 19.5 22.6249ZM19.5 30.875C20.8921 30.875 22.2154 30.7959 23.4699 30.6377C24.7244 30.4796 25.8521 30.2553 26.8531 29.965C27.8541 29.6747 28.7045 29.3275 29.4044 28.9234C30.1042 28.5193 30.5944 28.0832 30.875 27.6152V21.7279C30.2131 22.1287 29.4602 22.4884 28.6163 22.8069C27.7745 23.1254 26.8623 23.3913 25.8797 23.6047C24.8972 23.8182 23.8675 23.979 22.7906 24.0874C21.7138 24.1957 20.6169 24.2499 19.5 24.2499C18.3408 24.2499 17.2147 24.1903 16.1216 24.0711C15.0285 23.952 13.9961 23.7862 13.0244 23.5739C12.0526 23.3615 11.1518 23.1005 10.322 22.7906C9.49217 22.483 8.75983 22.1287 8.125 21.7279V27.625C8.40667 28.1147 8.89579 28.5545 9.59237 28.9445C10.289 29.3345 11.1372 29.6741 12.1371 29.9634C13.137 30.2526 14.2664 30.4774 15.5252 30.6377C16.7841 30.7981 18.109 30.8772 19.5 30.875Z"
    />
</svg>
