<svg width="34" height="34" viewBox="0 0 34 34" xmlns="http://www.w3.org/2000/svg">
    <path
        d="M19.7674 2.14847L17.3699 14.745L26.0553 14.7742L14.2329 31.8507L16.6304 17.9925L7.94552 17.9622L19.7674 2.14847ZM19.769 0.0235039C19.7116 0.0235039 19.6543 0.0255957 19.598 0.0298125C19.2229 0.060127 18.9743 0.185502 18.6795 0.383658C18.5134 0.494336 18.3638 0.627738 18.2348 0.779971C18.1961 0.82567 18.1595 0.873182 18.1253 0.922346L6.21842 16.6808C5.74827 17.3252 5.6792 18.1758 6.04045 18.8866C6.40117 19.5974 7.13058 20.0479 7.93011 20.0538L14.0639 20.0984L12.1355 31.4602C11.9522 32.4367 12.4728 33.4099 13.3892 33.802C13.6556 33.9164 13.9424 33.9754 14.2323 33.9752C14.9001 33.9752 15.4489 33.6628 15.8606 33.0986L27.7824 16.0221C28.2525 15.3776 28.3211 14.526 27.9604 13.8163C27.5996 13.1055 26.8702 12.6549 26.0707 12.6491L19.9369 12.6385L21.8446 2.64834C21.885 2.48479 21.9054 2.31691 21.9052 2.14844C21.9052 0.998812 20.9898 0.0616875 19.8445 0.0245C19.819 0.0234375 19.794 0.0234375 19.769 0.0234375L19.769 0.0235039Z"
    />
</svg>