<svg width="39" height="39" viewBox="0 0 39 39" xmlns="http://www.w3.org/2000/svg">
    <path
        d="M19.4999 5.85039C18.7241 5.85039 17.9802 6.15856 17.4316 6.7071C16.8831 7.25565 16.5749 7.99963 16.5749 8.77539C16.5749 9.55115 16.8831 10.2951 17.4316 10.8437C17.9802 11.3922 18.7241 11.7004 19.4999 11.7004C20.2757 11.7004 21.0196 11.3922 21.5682 10.8437C22.1167 10.2951 22.4249 9.55115 22.4249 8.77539C22.4249 7.99963 22.1167 7.25565 21.5682 6.7071C21.0196 6.15856 20.2757 5.85039 19.4999 5.85039ZM14.6249 8.77539C14.6249 7.48246 15.1385 6.24249 16.0528 5.32825C16.967 4.41401 18.207 3.90039 19.4999 3.90039C20.7928 3.90039 22.0328 4.41401 22.947 5.32825C23.8613 6.24249 24.3749 7.48246 24.3749 8.77539C24.3749 10.0683 23.8613 11.3083 22.947 12.2225C22.0328 13.1368 20.7928 13.6504 19.4999 13.6504C18.207 13.6504 16.967 13.1368 16.0528 12.2225C15.1385 11.3083 14.6249 10.0683 14.6249 8.77539ZM30.2249 7.80039C29.7077 7.80039 29.2117 8.00584 28.846 8.37153C28.4803 8.73723 28.2749 9.23322 28.2749 9.75039C28.2749 10.2676 28.4803 10.7636 28.846 11.1292C29.2117 11.4949 29.7077 11.7004 30.2249 11.7004C30.7421 11.7004 31.2381 11.4949 31.6038 11.1292C31.9695 10.7636 32.1749 10.2676 32.1749 9.75039C32.1749 9.23322 31.9695 8.73723 31.6038 8.37153C31.2381 8.00584 30.7421 7.80039 30.2249 7.80039ZM26.3249 9.75039C26.3249 8.71605 26.7358 7.72407 27.4672 6.99267C28.1986 6.26128 29.1906 5.85039 30.2249 5.85039C31.2592 5.85039 32.2512 6.26128 32.9826 6.99267C33.714 7.72407 34.1249 8.71605 34.1249 9.75039C34.1249 10.7847 33.714 11.7767 32.9826 12.5081C32.2512 13.2395 31.2592 13.6504 30.2249 13.6504C29.1906 13.6504 28.1986 13.2395 27.4672 12.5081C26.7358 11.7767 26.3249 10.7847 26.3249 9.75039ZM6.8249 9.75039C6.8249 9.23322 7.03035 8.73723 7.39604 8.37153C7.76174 8.00584 8.25773 7.80039 8.7749 7.80039C9.29207 7.80039 9.78806 8.00584 10.1538 8.37153C10.5195 8.73723 10.7249 9.23322 10.7249 9.75039C10.7249 10.2676 10.5195 10.7636 10.1538 11.1292C9.78806 11.4949 9.29207 11.7004 8.7749 11.7004C8.25773 11.7004 7.76174 11.4949 7.39604 11.1292C7.03035 10.7636 6.8249 10.2676 6.8249 9.75039ZM8.7749 5.85039C7.74056 5.85039 6.74858 6.26128 6.01719 6.99267C5.28579 7.72407 4.8749 8.71605 4.8749 9.75039C4.8749 10.7847 5.28579 11.7767 6.01719 12.5081C6.74858 13.2395 7.74056 13.6504 8.7749 13.6504C9.80925 13.6504 10.8012 13.2395 11.5326 12.5081C12.264 11.7767 12.6749 10.7847 12.6749 9.75039C12.6749 8.71605 12.264 7.72407 11.5326 6.99267C10.8012 6.26128 9.80925 5.85039 8.7749 5.85039ZM9.9449 29.2465L9.7499 29.2504C8.71556 29.2504 7.72358 28.8395 6.99219 28.1081C6.26079 27.3767 5.8499 26.3847 5.8499 25.3504V18.0379C5.8499 17.9086 5.90126 17.7846 5.99269 17.6932C6.08411 17.6018 6.20811 17.5504 6.3374 17.5504H9.7772C9.8552 16.8347 10.1087 16.1698 10.489 15.6004H6.3374C4.9919 15.6004 3.8999 16.6924 3.8999 18.0379V25.3504C3.89981 26.1852 4.0784 27.0104 4.42368 27.7705C4.76895 28.5306 5.27291 29.208 5.90168 29.7571C6.53046 30.3063 7.2695 30.7145 8.06913 30.9544C8.86877 31.1942 9.71047 31.2602 10.5377 31.1477C10.2757 30.5359 10.0771 29.8988 9.9449 29.2465ZM28.4621 31.1477C28.7195 31.1828 28.9821 31.2004 29.2499 31.2004C30.8014 31.2004 32.2894 30.5841 33.3865 29.487C34.4836 28.3899 35.0999 26.9019 35.0999 25.3504V18.0379C35.0999 16.6924 34.0079 15.6004 32.6624 15.6004H28.5109C28.8931 16.1698 29.1446 16.8347 29.2226 17.5504H32.6624C32.7917 17.5504 32.9157 17.6018 33.0071 17.6932C33.0985 17.7846 33.1499 17.9086 33.1499 18.0379V25.3504C33.15 25.879 33.0427 26.4022 32.8344 26.8881C32.6261 27.374 32.3211 27.8125 31.9381 28.1769C31.5551 28.5413 31.1021 28.824 30.6064 29.0079C30.1108 29.1917 29.5829 29.2729 29.0549 29.2465C28.9227 29.8988 28.7241 30.5359 28.4621 31.1477ZM14.1374 15.6004C12.7919 15.6004 11.6999 16.6924 11.6999 18.0379V27.3004C11.6999 29.3691 12.5217 31.353 13.9845 32.8158C15.4473 34.2786 17.4312 35.1004 19.4999 35.1004C21.5686 35.1004 23.5526 34.2786 25.0153 32.8158C26.4781 31.353 27.2999 29.3691 27.2999 27.3004V18.0379C27.2999 16.6924 26.2079 15.6004 24.8624 15.6004H14.1374ZM13.6499 18.0379C13.6499 17.9086 13.7013 17.7846 13.7927 17.6932C13.8841 17.6018 14.0081 17.5504 14.1374 17.5504H24.8624C24.9917 17.5504 25.1157 17.6018 25.2071 17.6932C25.2985 17.7846 25.3499 17.9086 25.3499 18.0379V27.3004C25.3499 28.8519 24.7336 30.3399 23.6365 31.437C22.5394 32.5341 21.0514 33.1504 19.4999 33.1504C17.9484 33.1504 16.4604 32.5341 15.3633 31.437C14.2662 30.3399 13.6499 28.8519 13.6499 27.3004V18.0379Z"
    />
</svg>