<svg width="36" height="36" viewBox="0 0 36 36" xmlns="http://www.w3.org/2000/svg">
    <g clip-path="url(#clip0_6198_35735)">
        <path
            d="M1.806 6.084L4.5555 3.333C4.5555 3.333 14.6385 6.6945 20.445 10.056L26.91 3.591C27.8745 2.6265 29.1015 1.9575 30.4545 1.773C31.4865 1.632 32.7525 1.5 33.8895 1.5L34.5 2.1105C34.5 3.246 34.368 4.5135 34.227 5.5455C34.0425 6.8985 33.3735 8.1255 32.409 9.0915L25.944 15.5565C29.3055 21.3615 32.667 31.4445 32.667 31.4445L29.916 34.194C29.916 34.194 24.417 26.25 19.833 21.666C19.833 21.666 16.437 23.841 11.2785 29.001C11.2785 29.001 11.889 31.4445 11.889 33.8895L11.2785 34.5C11.2785 34.5 8.8335 31.4445 6.6945 29.3055C4.5555 27.1665 1.5 24.723 1.5 24.723L2.1105 24.111C4.5555 24.111 7.0005 24.7215 7.0005 24.7215C12.159 19.563 14.334 16.167 14.334 16.167C9.75 11.583 1.806 6.084 1.806 6.084Z"
            stroke-width="1.5" />
    </g>
    <defs>
        <clipPath id="clip0_6198_35735">
            <rect width="36" height="36" />
        </clipPath>
    </defs>
</svg>