<svg width="37" height="37" viewBox="0 0 37 37" xmlns="http://www.w3.org/2000/svg">
    <path
        d="M19.6562 4.23926V6.93717H22.701C23.2421 6.93717 23.7709 7.10059 24.218 7.4043L26.8342 9.18338C26.899 9.22655 26.9709 9.24865 27.05 9.24967H33.374C33.6806 9.24967 33.9747 9.37149 34.1915 9.58833C34.4084 9.80517 34.5302 10.0993 34.5302 10.4059C34.5302 10.7126 34.4084 11.0067 34.1915 11.2235C33.9747 11.4404 33.6806 11.5622 33.374 11.5622H30.9412L36.1305 23.4022C36.2343 23.6389 36.2558 23.9036 36.1915 24.154C36.1272 24.4044 35.9809 24.626 35.7759 24.7835C35.6217 24.8976 35.4624 25.0035 35.298 25.1011C34.9077 25.3358 34.5006 25.5414 34.08 25.7162C32.6856 26.2994 31.1885 26.5976 29.677 26.5934C28.166 26.6 26.6691 26.3022 25.2756 25.7178C24.855 25.5425 24.4479 25.3364 24.0577 25.1011C23.8937 25.0071 23.7356 24.9031 23.5844 24.7897L23.5767 24.7835C23.3716 24.626 23.2253 24.4044 23.161 24.154C23.0968 23.9036 23.1183 23.6389 23.2221 23.4022L28.4144 11.5622H27.0485C26.5074 11.5622 25.9786 11.3988 25.5315 11.095L22.9153 9.31597C22.8516 9.27282 22.7764 9.24973 22.6995 9.24967H19.6562V31.6038H26.5737C26.8803 31.6038 27.1744 31.7257 27.3913 31.9425C27.6081 32.1593 27.7299 32.4534 27.7299 32.7601C27.7299 33.0667 27.6081 33.3608 27.3913 33.5777C27.1744 33.7945 26.8803 33.9163 26.5737 33.9163H10.4262C10.1196 33.9163 9.82549 33.7945 9.60865 33.5777C9.39181 33.3608 9.26999 33.0667 9.26999 32.7601C9.26999 32.4534 9.39181 32.1593 9.60865 31.9425C9.82549 31.7257 10.1196 31.6038 10.4262 31.6038H17.3437V9.24967H14.2989C14.222 9.24973 14.1468 9.27282 14.0831 9.31597L11.4684 11.095C11.0213 11.3988 10.4925 11.5622 9.95141 11.5622H8.58549L13.7778 23.4022C13.8783 23.6322 13.9012 23.8887 13.8431 24.1329C13.785 24.377 13.649 24.5957 13.4556 24.7558C13.3323 24.856 13.209 24.95 12.9777 25.0996C12.588 25.3524 12.1799 25.5756 11.7567 25.7671C10.3647 26.4008 8.85234 26.7268 7.32287 26.7229C5.7934 26.7268 4.28108 26.4008 2.88904 25.7671C2.46585 25.5756 2.0577 25.3524 1.66804 25.0996C1.50394 24.9936 1.34497 24.8799 1.19166 24.7588C0.999439 24.5973 0.864216 24.3782 0.805928 24.1339C0.747639 23.8897 0.769368 23.6332 0.867912 23.4022L6.0587 11.5622H3.62749C3.32084 11.5622 3.02674 11.4404 2.8099 11.2235C2.59306 11.0067 2.47124 10.7126 2.47124 10.4059C2.47124 10.0993 2.59306 9.80517 2.8099 9.58833C3.02674 9.37149 3.32084 9.24967 3.62749 9.24967H9.95141C10.0295 9.24967 10.102 9.22758 10.1688 9.18338L12.7819 7.4043C13.229 7.09905 13.7593 6.93717 14.3005 6.93717H17.3437V4.23926C17.3437 3.9326 17.4655 3.6385 17.6824 3.42167C17.8992 3.20483 18.1933 3.08301 18.5 3.08301C18.8066 3.08301 19.1007 3.20483 19.3175 3.42167C19.5344 3.6385 19.6562 3.9326 19.6562 4.23926ZM3.38083 23.4299C4.59386 24.0767 5.94818 24.413 7.32287 24.4089C8.69756 24.413 10.0519 24.0767 11.2649 23.4299L7.32287 14.442L3.38083 23.4299ZM25.7504 23.3929C25.8768 23.4546 26.0181 23.5193 26.1744 23.5872C26.9915 23.931 28.1862 24.2809 29.677 24.2809C31.0361 24.2846 32.3784 23.981 33.6037 23.3929L29.677 14.4405L25.7504 23.3929Z"
    />
</svg>