<svg width="38" height="38" viewBox="0 0 38 38" fill="none" xmlns="http://www.w3.org/2000/svg">
    <path
        d="M16.625 19.7006L13.5494 16.625L11.875 18.2994L16.625 23.0494L26.125 13.5494L24.4506 11.875L16.625 19.7006Z"
    />
    <path
        d="M19 35.625L11.666 31.7146C9.57505 30.6024 7.82647 28.9418 6.60801 26.911C5.38955 24.8802 4.74723 22.5558 4.75001 20.1875V4.75C4.75001 4.12011 5.00023 3.51602 5.44563 3.07062C5.89103 2.62522 6.49512 2.375 7.12501 2.375H30.875C31.5049 2.375 32.109 2.62522 32.5544 3.07062C32.9998 3.51602 33.25 4.12011 33.25 4.75V20.1875C33.2528 22.5558 32.6105 24.8802 31.392 26.911C30.1735 28.9418 28.425 30.6024 26.334 31.7146L19 35.625ZM7.12501 4.75V20.1875C7.12369 22.1251 7.64974 24.0266 8.64677 25.688C9.64379 27.3495 11.0742 28.7082 12.7846 29.6186L19 32.9329L25.2154 29.6198C26.926 28.7093 28.3565 27.3504 29.3536 25.6887C30.3506 24.027 30.8765 22.1253 30.875 20.1875V4.75H7.12501Z"
    />
</svg>