<svg width="32" height="32" viewBox="0 0 32 32" fill="none" xmlns="http://www.w3.org/2000/svg">
<path fill-rule="evenodd" clip-rule="evenodd" d="M5.25842 16.1794C5.25842 10.1479 10.1479 5.25842 16.1794 5.25842C22.2109 5.25842 27.1003 10.1479 27.1003 16.1794C27.1003 22.2109 22.2109 27.1003 16.1794 27.1003C10.1479 27.1003 5.25842 22.2109 5.25842 16.1794ZM16.1794 2.83154C8.80757 2.83154 2.83154 8.80757 2.83154 16.1794C2.83154 23.5512 8.80757 29.5272 16.1794 29.5272C23.5512 29.5272 29.5272 23.5512 29.5272 16.1794C29.5272 8.80757 23.5512 2.83154 16.1794 2.83154ZM17.3928 10.6515C17.3928 9.98133 16.8495 9.43805 16.1794 9.43805C15.5092 9.43805 14.9659 9.98133 14.9659 10.6515V17.6625C14.9659 18.3327 15.5092 18.876 16.1794 18.876C16.8495 18.876 17.3928 18.3327 17.3928 17.6625V10.6515ZM17.5276 21.5725C17.5276 22.3171 16.924 22.9207 16.1794 22.9207C15.4347 22.9207 14.8311 22.3171 14.8311 21.5725C14.8311 20.8278 15.4347 20.2242 16.1794 20.2242C16.924 20.2242 17.5276 20.8278 17.5276 21.5725Z" fill="#F04438"/>
</svg>
