<svg width="48" height="48" viewBox="0 0 48 48" fill="none" xmlns="http://www.w3.org/2000/svg">
    <path
        d="M42.5 26V17C42.5 14.3478 41.4464 11.8043 39.5711 9.92893C37.6957 8.05357 35.1522 7 32.5 7H15.5C12.8478 7 10.3043 8.05357 8.42893 9.92893C6.55357 11.8043 5.5 14.3478 5.5 17V31C5.5 32.3132 5.75866 33.6136 6.2612 34.8268C6.76375 36.0401 7.50035 37.1425 8.42893 38.0711C10.3043 39.9464 12.8478 41 15.5 41H28.02"
        stroke="white" stroke-width="2" stroke-linecap="round" stroke-linejoin="round" />
    <path
        d="M6.02002 34.0003L11.5 27.6003C12.2197 26.8855 13.1642 26.4413 14.1738 26.3429C15.1833 26.2445 16.1959 26.4979 17.04 27.0603C17.8842 27.6226 18.8967 27.876 19.9063 27.7776C20.9158 27.6792 21.8603 27.235 22.58 26.5203L27.24 21.8603C28.579 20.5167 30.3518 19.6927 32.2421 19.5351C34.1324 19.3776 36.0171 19.8969 37.56 21.0003L42.5 24.8203M16.02 20.3403C16.456 20.3376 16.8872 20.2492 17.289 20.0799C17.6908 19.9106 18.0553 19.6639 18.3618 19.3537C18.6682 19.0436 18.9105 18.6761 19.075 18.2723C19.2394 17.8685 19.3226 17.4362 19.32 17.0003C19.3174 16.5643 19.2289 16.1331 19.0596 15.7313C18.8904 15.3295 18.6436 14.965 18.3335 14.6585C18.0233 14.3521 17.6559 14.1097 17.2521 13.9453C16.8482 13.7809 16.416 13.6976 15.98 13.7003C15.0995 13.7056 14.2572 14.0604 13.6383 14.6868C13.0194 15.3132 12.6747 16.1597 12.68 17.0403C12.6853 17.9208 13.0402 18.7631 13.6666 19.382C14.2929 20.0009 15.1395 20.3456 16.02 20.3403Z"
        stroke="white" stroke-width="2" stroke-linecap="round" stroke-linejoin="round" />
    <path d="M37.988 31V41M33 36.01H43" stroke="white" stroke-width="2" stroke-miterlimit="10"
        stroke-linecap="round" />
</svg>