<svg width="66" height="66" viewBox="0 0 66 66" fill="none" xmlns="http://www.w3.org/2000/svg">
    <path fill-rule="evenodd" clip-rule="evenodd"
        d="M36.3001 9.90039H33.0001C30.0731 9.89965 27.2289 10.8718 24.9148 12.6638C22.6006 14.4559 20.9476 16.9664 20.2159 19.8004H19.8001C16.2992 19.8004 12.9418 21.1911 10.4663 23.6666C7.99081 26.1421 6.6001 29.4995 6.6001 33.0004C6.6001 36.5012 7.99081 39.8587 10.4663 42.3342C12.9418 44.8097 16.2992 46.2004 19.8001 46.2004H46.2001C49.4458 46.2051 52.5795 45.0139 55.0024 42.8542C57.4253 40.6946 58.9676 37.718 59.3346 34.4931C59.7017 31.2682 58.8677 28.0211 56.992 25.3723C55.1164 22.7234 52.3305 20.8584 49.1668 20.1337C48.4957 17.2241 46.858 14.6281 44.521 12.7694C42.1841 10.9108 39.286 9.8994 36.3001 9.90039ZM22.7734 23.1004L23.4103 20.6254C23.9592 18.4996 25.1991 16.6166 26.9351 15.2725C28.6711 13.9284 30.8046 13.1995 33.0001 13.2004H36.3001C40.9366 13.2004 44.9263 16.4179 45.9493 20.8729L46.4113 22.8859L48.4243 23.3512C50.7906 23.9015 52.872 25.3023 54.2727 27.2873C55.6734 29.2722 56.2956 31.7028 56.021 34.1166C55.7464 36.5305 54.594 38.7591 52.7832 40.3787C50.9724 41.9983 48.6295 42.8957 46.2001 42.9004H19.8001C17.1745 42.9004 14.6564 41.8574 12.7997 40.0007C10.9431 38.1441 9.9001 35.626 9.9001 33.0004C9.9001 30.3747 10.9431 27.8566 12.7997 26C14.6564 24.1434 17.1745 23.1004 19.8001 23.1004H22.7734Z"
        fill="white" />
    <path
        d="M36.3 54.4508C36.3 54.8884 36.1262 55.3081 35.8167 55.6175C35.5073 55.9269 35.0876 56.1008 34.65 56.1008C34.2124 56.1008 33.7927 55.9269 33.4833 55.6175C33.1738 55.3081 33 54.8884 33 54.4508V29.7008C33 29.2632 33.1738 28.8435 33.4833 28.5341C33.7927 28.2246 34.2124 28.0508 34.65 28.0508C35.0876 28.0508 35.5073 28.2246 35.8167 28.5341C36.1262 28.8435 36.3 29.2632 36.3 29.7008V54.4508Z"
        fill="white" />
    <path
        d="M27.4299 37.587C27.0866 37.8361 26.6605 37.9433 26.2402 37.8866C25.8199 37.8298 25.4376 37.6134 25.1726 37.2822C24.9077 36.951 24.7804 36.5305 24.8173 36.1079C24.8542 35.6854 25.0523 35.2933 25.3707 35.013L33.6207 28.413C33.964 28.164 34.39 28.0567 34.8104 28.1135C35.2307 28.1703 35.613 28.3867 35.8779 28.7179C36.1429 29.0491 36.2701 29.4696 36.2333 29.8921C36.1964 30.3146 35.9982 30.7068 35.6799 30.987L27.4299 37.587Z"
        fill="white" />
    <path
        d="M43.9298 35.0136C44.2481 35.2938 44.4463 35.6859 44.4832 36.1085C44.5201 36.531 44.3928 36.9515 44.1279 37.2827C43.8629 37.6139 43.4806 37.8303 43.0603 37.8871C42.64 37.9439 42.2139 37.8366 41.8706 37.5876L33.6206 30.9876C33.4399 30.8565 33.2877 30.6901 33.1732 30.4985C33.0586 30.3069 32.9842 30.094 32.9543 29.8728C32.9244 29.6516 32.9397 29.4266 32.9993 29.2115C33.0589 28.9963 33.1616 28.7955 33.301 28.6212C33.4405 28.4469 33.6138 28.3027 33.8106 28.1973C34.0074 28.092 34.2236 28.0276 34.446 28.0082C34.6684 27.9888 34.8924 28.0147 35.1045 28.0844C35.3165 28.1541 35.5123 28.266 35.6798 28.4136L43.9298 35.0136Z"
        fill="white" />
</svg>